<svg width="25" height="24" viewBox="0 0 25 24" fill="none" xmlns="http://www.w3.org/2000/svg">
<path d="M22.5 11.25H20.46C20.1 7.44 17.06 4.39 13.25 4.04V2C13.25 1.59 12.91 1.25 12.5 1.25C12.09 1.25 11.75 1.59 11.75 2V4.04C7.94 4.4 4.89 7.44 4.54 11.25H2.5C2.09 11.25 1.75 11.59 1.75 12C1.75 12.41 2.09 12.75 2.5 12.75H4.54C4.9 16.56 7.94 19.61 11.75 19.96V22C11.75 22.41 12.09 22.75 12.5 22.75C12.91 22.75 13.25 22.41 13.25 22V19.96C17.06 19.6 20.11 16.56 20.46 12.75H22.5C22.91 12.75 23.25 12.41 23.25 12C23.25 11.59 22.91 11.25 22.5 11.25ZM12.5 15.12C10.78 15.12 9.38 13.72 9.38 12C9.38 10.28 10.78 8.88 12.5 8.88C14.22 8.88 15.62 10.28 15.62 12C15.62 13.72 14.22 15.12 12.5 15.12Z" fill="white"/>
</svg>
