<svg width="31" height="32" viewBox="0 0 31 32" fill="none" xmlns="http://www.w3.org/2000/svg">
<path d="M30.5909 15.9802C30.5909 14.9529 30.4999 13.9777 30.3439 13.0284H15.6499V18.893H24.0632C23.6861 20.8175 22.5808 22.443 20.9423 23.5483V27.4493H25.9617C28.9005 24.7316 30.5909 20.7265 30.5909 15.9802Z" fill="#4285F4"/>
<path d="M15.6499 31.2333C19.863 31.2333 23.387 29.8289 25.9617 27.4493L20.9423 23.5482C19.5379 24.4845 17.7565 25.0566 15.6499 25.0566C11.5798 25.0566 8.13387 22.3129 6.89854 18.6069H1.72314V22.625C4.28483 27.7224 9.55126 31.2333 15.6499 31.2333Z" fill="#34A853"/>
<path d="M6.89875 18.607C6.57366 17.6707 6.40461 16.6695 6.40461 15.6292C6.40461 14.5889 6.58666 13.5876 6.89875 12.6514V8.63329H1.72335C0.657062 10.7399 0.0458984 13.1065 0.0458984 15.6292C0.0458984 18.1519 0.657062 20.5185 1.72335 22.6251L6.89875 18.607Z" fill="#FBBC05"/>
<path d="M15.6499 6.20163C17.9515 6.20163 20.0061 6.99484 21.6315 8.54226L26.0787 4.09506C23.387 1.57238 19.863 0.0249634 15.6499 0.0249634C9.55126 0.0249634 4.28483 3.53591 1.72314 8.63329L6.89854 12.6514C8.13387 8.94537 11.5798 6.20163 15.6499 6.20163Z" fill="#EA4335"/>
</svg>
