<svg width="31" height="37" viewBox="0 0 31 37" fill="none" xmlns="http://www.w3.org/2000/svg">
<path d="M25.6541 19.7462C25.7056 25.2932 30.5203 27.1391 30.5736 27.1627C30.5329 27.2929 29.8043 29.7933 28.037 32.3761C26.5093 34.609 24.9236 36.8337 22.4258 36.8798C19.9715 36.925 19.1823 35.4244 16.3763 35.4244C13.5711 35.4244 12.6943 36.8337 10.371 36.925C7.95997 37.0163 6.12401 34.5104 4.58356 32.2857C1.43583 27.7349 -0.969679 19.4262 2.26032 13.8178C3.86491 11.0326 6.73244 9.26885 9.84489 9.22363C12.2124 9.17847 14.4471 10.8164 15.8944 10.8164C17.3408 10.8164 20.0565 8.84663 22.9113 9.13592C24.1064 9.18567 27.4612 9.61869 29.6154 12.7718C29.4418 12.8794 25.6124 15.1087 25.6541 19.7462V19.7462ZM21.0414 6.12518C22.3215 4.57577 23.183 2.41884 22.9479 0.272705C21.1029 0.34686 18.8718 1.5022 17.5484 3.05076C16.3623 4.42209 15.3236 6.61698 15.6039 8.72064C17.6604 8.87975 19.7613 7.67559 21.0414 6.12519" fill="#292D32"/>
</svg>
